HIERARCHY
ROOT RootJoint
{
    OFFSET   0.000000   0.000000   0.000000
    CHANNELS 6 Xposition Yposition Zposition Xrotation Yrotation Zrotation
    JOINT pelvis_lowerback
    {
        OFFSET   0.000000   0.093605   0.000000
        CHANNELS 3 Xrotation Yrotation Zrotation
        JOINT lowerback_torso
        {
            OFFSET   0.000000   0.100000   0.000000
            CHANNELS 3 Xrotation Yrotation Zrotation
            JOINT torso_head
            {
                OFFSET   0.000000   0.282350   0.000000
                CHANNELS 3 Xrotation Yrotation Zrotation
                End Site
                {
                    OFFSET   0.000000   0.192650   0.000000
                }
            }
            JOINT rTorso_Clavicle
            {
                OFFSET  -0.001000   0.157500   0.000000
                CHANNELS 3 Xrotation Yrotation Zrotation
                JOINT rShoulder
                {
                    OFFSET  -0.117647   0.000000   0.000000
                    CHANNELS 3 Xrotation Yrotation Zrotation
                    JOINT rElbow
                    {
                        OFFSET  -0.245000   0.000000   0.000000
                        CHANNELS 3 Xrotation Yrotation Zrotation
                        JOINT rWrist
                        {
                            OFFSET  -0.240000   0.000000   0.000000
                            CHANNELS 3 Xrotation Yrotation Zrotation
                            End Site
                            {
                                OFFSET  -0.116353  -0.002500   0.000000
                            }
                        }
                    }
                }
            }
            JOINT lTorso_Clavicle
            {
                OFFSET   0.001000   0.157500   0.000000
                CHANNELS 3 Xrotation Yrotation Zrotation
                JOINT lShoulder
                {
                    OFFSET   0.117647   0.000000   0.000000
                    CHANNELS 3 Xrotation Yrotation Zrotation
                    JOINT lElbow
                    {
                        OFFSET   0.245000   0.000000   0.000000
                        CHANNELS 3 Xrotation Yrotation Zrotation
                        JOINT lWrist
                        {
                            OFFSET   0.240000   0.000000   0.000000
                            CHANNELS 3 Xrotation Yrotation Zrotation
                            End Site
                            {
                                OFFSET   0.116353  -0.002500   0.000000
                            }
                        }
                    }
                }
            }
        }
    }
    JOINT rHip
    {
        OFFSET  -0.100000  -0.051395   0.000000
        CHANNELS 3 Xrotation Yrotation Zrotation
        JOINT rKnee
        {
            OFFSET   0.000000  -0.410000   0.000000
            CHANNELS 3 Xrotation Yrotation Zrotation
            JOINT rAnkle
            {
                OFFSET   0.000000  -0.390000   0.000000
                CHANNELS 3 Xrotation Yrotation Zrotation
                JOINT rToeJoint
                {
                    OFFSET   0.000000  -0.050000   0.130000
                    CHANNELS 3 Xrotation Yrotation Zrotation
                    End Site
                    {
                        OFFSET  -0.010000   0.002000   0.060000
                    }
                }
            }
        }
    }
    JOINT lHip
    {
        OFFSET   0.100000  -0.051395   0.000000
        CHANNELS 3 Xrotation Yrotation Zrotation
        JOINT lKnee
        {
            OFFSET   0.000000  -0.410000   0.000000
            CHANNELS 3 Xrotation Yrotation Zrotation
            JOINT lAnkle
            {
                OFFSET   0.000000  -0.390000   0.000000
                CHANNELS 3 Xrotation Yrotation Zrotation
                JOINT lToeJoint
                {
                    OFFSET   0.000000  -0.050000   0.130000
                    CHANNELS 3 Xrotation Yrotation Zrotation
                    End Site
                    {
                        OFFSET   0.010000   0.002000   0.060000
                    }
                }
            }
        }
    }
}
MOTION
Frames: 11
Frame Time:   0.008333
 -3.029939   0.898425   3.884312  -1.583982  28.763421  -1.996332   0.243418  -3.740183  -0.219749   1.512610  -8.463482   2.235122   2.394023  -8.338268   3.538801  -4.276901   3.435932  -4.508774 -32.147080   1.734114   6.199063   0.002533  39.742145  -0.007184  -4.114129   4.573229  -6.280192  -2.649757 -11.998293   4.674873 -13.269614 -40.461004 -23.861939 179.999143 -82.774502 179.999028  -0.387251  -9.993633  -2.890428 -15.904067 -11.481803  -0.356335  18.434332   0.000171   0.000503  -0.784020  -9.018275   0.029808   0.192556  -0.000269   0.000076   4.731146   1.371395   4.964687  30.229946  -0.008396  -0.009782 -18.472993   0.570193  -0.821966  -4.866944  -0.002713  -0.002880
 -3.030743   0.898077   3.879916  -1.555094  29.201047  -1.952163   0.286069  -3.727112  -0.256716   1.561017  -8.448621   2.216521   2.518561  -8.354011   3.575640  -4.333200   3.446598  -4.520766 -32.525400   1.641447   6.039596   0.002772  39.229085  -0.007576  -4.194122   4.570103  -6.208936  -2.647365 -12.079521   4.737339 -13.147067 -40.833605 -23.796445 179.998936 -82.753088 179.998836  -0.463552  -9.989884  -2.840324 -16.233895 -11.764404  -0.648450  18.475563   0.000170   0.000437  -0.652000  -9.231407   0.256835   0.522756  -0.000668  -0.000267   4.887018   1.212733   4.903018  29.311804  -0.007892  -0.009663 -18.845867   0.240112  -0.689132  -5.293055  -0.002046  -0.001975
 -3.031540   0.897704   3.875464  -1.527944  29.613532  -1.916346   0.334478  -3.709197  -0.290879   1.610094  -8.435188   2.201662   2.641339  -8.364264   3.608329  -4.392650   3.450435  -4.541835 -32.884676   1.551945   5.877890   0.002937  38.745033  -0.007665  -4.276232   4.538184  -6.185290  -2.647669 -12.166549   4.809057 -13.032202 -41.198137 -23.729877 179.998643 -82.724260 179.998553  -0.536815  -9.986366  -2.840272 -16.557269 -12.038865  -0.931160  18.499806   0.000155   0.000366  -0.532529  -9.434715   0.475808   0.820641  -0.000941  -0.000520   5.022879   1.061309   4.843265  28.425654  -0.007408  -0.009379 -19.195423  -0.079268  -0.571086  -5.682891  -0.001552  -0.001271
 -3.032327   0.897301   3.870968  -1.510268  29.996631  -1.885345   0.390291  -3.692883  -0.321440   1.661725  -8.424270   2.187505   2.758119  -8.373035   3.638687  -4.450281   3.453914  -4.567921 -33.222138   1.470622   5.722098   0.003001  38.293152  -0.007495  -4.355589   4.502128  -6.179574  -2.649951 -12.251781   4.880173 -12.925384 -41.541994 -23.665057 179.998447 -82.695726 179.998364  -0.606894  -9.982963  -2.852563 -16.869014 -12.294280  -1.200438  18.511259   0.000133   0.000300  -0.422809  -9.624611   0.681502   1.093178  -0.001107  -0.000682   5.140445   0.920951   4.783784  27.586578  -0.006939  -0.008938 -19.522830  -0.379300  -0.463648  -6.052221  -0.001182  -0.000740
 -3.033103   0.896866   3.866439  -1.505109  30.348396  -1.857484   0.451930  -3.678257  -0.349409   1.716217  -8.414746   2.173471   2.868570  -8.381028   3.667027  -4.505013   3.458279  -4.595911 -33.538228   1.397100   5.574476   0.002992  37.871892  -0.007159  -4.431398   4.469116  -6.179505  -2.652572 -12.333397   4.947962 -12.825276 -41.864164 -23.603112 179.998357 -82.669013 179.998279  -0.674012  -9.979659  -2.867003 -17.167482 -12.530752  -1.455752  18.513286   0.000108   0.000241  -0.321566  -9.801576   0.874240   1.342699  -0.001195  -0.000780   5.242862   0.791698   4.724397  26.797624  -0.006479  -0.008367 -19.830549  -0.659655  -0.365517  -6.412936  -0.000906  -0.000334
 -3.033863   0.896395   3.861886  -1.513619  30.668062  -1.831898   0.517614  -3.664687  -0.375605   1.772982  -8.405748   2.159394   2.972736  -8.388410   3.693405  -4.556538   3.463698  -4.623929 -33.833908   1.330411   5.435782   0.002936  37.479209  -0.006730  -4.503694   4.440125  -6.180613  -2.654604 -12.410786   5.011583 -12.730900 -42.165425 -23.544459 179.998350 -82.644278 179.998276  -0.738356  -9.976451  -2.881995 -17.452278 -12.749745  -1.697166  18.508124   0.000083   0.000191  -0.227847  -9.966494   1.054851   1.571206  -0.001226  -0.000838   5.332917   0.672772   4.665183  26.058148  -0.006027  -0.007701 -20.120875  -0.921379  -0.276007  -6.775702  -0.000705  -0.000009
 -3.034604   0.895889   3.857316  -1.536124  30.955658  -1.808007   0.585780  -3.651738  -0.400616   1.831166  -8.396794   2.145205   3.070759  -8.395256   3.717873  -4.604822   3.470080  -4.650912 -34.110289   1.269666   5.306130   0.002855  37.113110  -0.006261  -4.572669   4.414725  -6.181152  -2.655665 -12.483737   5.070869 -12.641633 -42.446880 -23.489168 179.998402 -82.621432 179.998332  -0.800063  -9.973335  -2.897501 -17.723493 -12.952736  -1.925011  18.497236   0.000059   0.000149  -0.140946 -10.120235   1.224148   1.780513  -0.001218  -0.000869   5.412847   0.563314   4.606179  25.366219  -0.005586  -0.006974 -20.395843  -1.165700  -0.194585  -7.149102  -0.000565   0.000262
 -3.035317   0.895193   3.852735  -1.542212  31.232343  -1.788863   0.619532  -3.614209  -0.436688   1.914990  -8.369198   2.133423   3.163687  -8.376933   3.748253  -4.644446   3.418690  -4.618111 -34.444771   1.187543   5.110511   0.002918  36.790634  -0.005953  -4.657516   4.460658  -6.171663  -2.650122 -12.536430   5.105475 -12.433037 -42.833272 -23.321809 179.998113 -82.588823 179.998040  -0.889736  -9.969767  -2.797867 -18.102636 -13.185461  -2.193294  18.670980   0.000171   0.000097  -0.206151 -10.259235   1.458403   1.817081  -0.001040  -0.000739   5.500009   0.508711   4.536433  24.638296  -0.005423  -0.006671 -20.707098  -1.422520  -0.044395  -7.607363  -0.000178   0.000445
 -3.036034   0.894373   3.848157  -1.565151  31.522877  -1.781735   0.664048  -3.589346  -0.461420   2.008177  -8.354890   2.131081   3.253282  -8.356919   3.776186  -4.685669   3.348621  -4.577397 -34.759647   1.095404   4.920559   0.002906  36.485780  -0.005590  -4.740415   4.505792  -6.199170  -2.631616 -12.586048   5.133702 -12.224477 -43.200009 -23.165250 179.997863 -82.553745 179.997777  -0.976547  -9.966245  -2.746700 -18.481738 -13.411619  -2.446485  18.878001   0.000286   0.000094  -0.251236 -10.391911   1.684100   1.839190  -0.000868  -0.000612   5.589684   0.463412   4.485539  23.937061  -0.005324  -0.006510 -21.014930  -1.657914   0.092536  -8.217713   0.000195   0.000420
 -3.036752   0.893472   3.843571  -1.604233  31.817599  -1.783333   0.717839  -3.575479  -0.477490   2.108460  -8.351437   2.136164   3.338432  -8.337799   3.802258  -4.725016   3.270688  -4.530536 -35.053664   0.999260   4.742052   0.002819  36.197659  -0.005184  -4.821341   4.534735  -6.238336  -2.605655 -12.631976   5.155034 -12.020934 -43.542281 -23.019363 179.997752 -82.521213 179.997651  -1.060170  -9.962732  -2.722057 -18.849629 -13.622003  -2.682258  19.094292   0.000388   0.000134  -0.281955 -10.515970   1.897449   1.860849  -0.000727  -0.000504   5.674369   0.424881   4.448110  23.273425  -0.005231  -0.006372 -21.316180  -1.873002   0.217756  -8.927830   0.000516   0.000200
 -3.037464   0.892515   3.838971  -1.658033  32.108409  -1.789904   0.778573  -3.568912  -0.487592   2.213222  -8.354725   2.146462   3.419022  -8.319846   3.826445  -4.761770   3.190021  -4.478787 -35.327767   0.902259   4.576083   0.002677  35.926010  -0.004760  -4.900240   4.548751  -6.278806  -2.575262 -12.674461   5.171082 -11.824319 -43.861099 -22.883014 179.997753 -82.491642 179.997640  -1.140627  -9.959241  -2.712276 -19.203035 -13.816283  -2.903265  19.309004   0.000470   0.000193  -0.303946 -10.631654   2.098075   1.881767  -0.000610  -0.000413   5.752014   0.392025   4.418356  22.648066  -0.005120  -0.006202 -21.609228  -2.070204   0.332116  -9.702679   0.000770  -0.000141
